<svg width="670" height="360" viewBox="0 0 670 360" fill="none" xmlns="http://www.w3.org/2000/svg">
<rect width="670" height="360" rx="20" fill="#F8BC5C"/>
<path d="M251.15 263.594C251.15 264.854 251.744 265.862 252.932 266.618C254.12 267.338 255.65 267.824 257.522 268.076C259.43 268.328 261.536 268.526 263.84 268.67C266.144 268.814 268.448 269.048 270.752 269.372C273.056 269.66 275.144 270.11 277.016 270.722C278.924 271.298 280.472 272.288 281.66 273.692C282.848 275.096 283.442 276.86 283.442 278.984C283.442 282.8 281.48 285.716 277.556 287.732C273.632 289.748 268.61 290.756 262.49 290.756C259.07 290.756 256.064 290.468 253.472 289.892C250.916 289.28 248.918 288.542 247.478 287.678C246.038 286.778 244.868 285.716 243.968 284.492C243.068 283.268 242.474 282.134 242.186 281.09C241.934 280.01 241.808 278.876 241.808 277.688H250.61C250.574 280.172 251.582 282.008 253.634 283.196C255.722 284.348 258.656 284.924 262.436 284.924C270.752 284.924 274.91 282.98 274.91 279.092C274.91 277.688 274.298 276.608 273.074 275.852C271.886 275.06 270.338 274.556 268.43 274.34C266.522 274.088 264.398 273.908 262.058 273.8C259.754 273.692 257.45 273.512 255.146 273.26C252.842 272.972 250.736 272.522 248.828 271.91C246.92 271.298 245.354 270.272 244.13 268.832C242.942 267.356 242.348 265.466 242.348 263.162C242.348 259.526 244.148 256.7 247.748 254.684C251.348 252.668 256.496 251.66 263.192 251.66C269.312 251.66 274.136 252.758 277.664 254.954C281.228 257.114 282.974 260.516 282.902 265.16H274.64C274.64 259.94 270.824 257.33 263.192 257.33C255.164 257.33 251.15 259.418 251.15 263.594ZM324.049 258.302H299.803V269.048H322.321V273.962H299.803V283.898H324.049V290H292.405V252.2H324.049V258.302ZM332.192 290V252.254H354.764C364.088 252.254 368.75 255.314 368.75 261.434C368.75 263.954 367.976 265.97 366.428 267.482C364.88 268.958 362.81 269.894 360.218 270.29V272.072C361.37 272.144 362.234 272.45 362.81 272.99C363.422 273.494 363.782 274.25 363.89 275.258C363.998 276.23 363.98 277.31 363.836 278.498C363.728 279.686 363.53 281.126 363.242 282.818C363.134 283.322 363.062 283.7 363.026 283.952H369.128V290.108H353.414L358.76 275.042H339.59V290H332.192ZM339.59 258.248V269.264L354.602 269.372C356.546 269.408 358.166 268.94 359.462 267.968C360.758 266.96 361.406 265.574 361.406 263.81C361.406 262.01 360.758 260.642 359.462 259.706C358.202 258.734 356.618 258.248 354.71 258.248H339.59ZM414.795 271.694L406.749 290H394.059L386.013 271.586C385.653 270.038 385.329 268.256 385.041 266.24C384.789 264.224 384.537 261.938 384.285 259.382C384.069 256.79 383.889 254.972 383.745 253.928L381.909 254.144C382.053 255.116 382.323 256.916 382.719 259.544C383.115 262.172 383.439 264.494 383.691 266.51C383.943 268.49 384.069 270.272 384.069 271.856L384.177 290H376.023V252.2H388.767L399.891 287.408H400.917L412.095 252.2H424.785V290H416.685L416.739 271.964C416.739 270.344 416.865 268.526 417.117 266.51C417.369 264.458 417.675 262.172 418.035 259.652C418.431 257.132 418.701 255.314 418.845 254.198L417.063 253.982C416.955 254.99 416.775 256.808 416.523 259.436C416.271 262.028 416.001 264.332 415.713 266.348C415.461 268.364 415.155 270.146 414.795 271.694Z" fill="#202020"/>
</svg>
