<svg width="670" height="357" viewBox="0 0 670 357" fill="none" xmlns="http://www.w3.org/2000/svg">
<path d="M0 17C0 5.95432 8.9543 -3 20 -3H650C661.046 -3 670 5.95431 670 17V337C670 348.046 661.046 357 650 357H20C8.95429 357 0 348.046 0 337V17Z" fill="#F8BC5C"/>
<path d="M277.15 277.594C277.15 278.854 277.744 279.862 278.932 280.618C280.12 281.338 281.65 281.824 283.522 282.076C285.43 282.328 287.536 282.526 289.84 282.67C292.144 282.814 294.448 283.048 296.752 283.372C299.056 283.66 301.144 284.11 303.016 284.722C304.924 285.298 306.472 286.288 307.66 287.692C308.848 289.096 309.442 290.86 309.442 292.984C309.442 296.8 307.48 299.716 303.556 301.732C299.632 303.748 294.61 304.756 288.49 304.756C285.07 304.756 282.064 304.468 279.472 303.892C276.916 303.28 274.918 302.542 273.478 301.678C272.038 300.778 270.868 299.716 269.968 298.492C269.068 297.268 268.474 296.134 268.186 295.09C267.934 294.01 267.808 292.876 267.808 291.688H276.61C276.574 294.172 277.582 296.008 279.634 297.196C281.722 298.348 284.656 298.924 288.436 298.924C296.752 298.924 300.91 296.98 300.91 293.092C300.91 291.688 300.298 290.608 299.074 289.852C297.886 289.06 296.338 288.556 294.43 288.34C292.522 288.088 290.398 287.908 288.058 287.8C285.754 287.692 283.45 287.512 281.146 287.26C278.842 286.972 276.736 286.522 274.828 285.91C272.92 285.298 271.354 284.272 270.13 282.832C268.942 281.356 268.348 279.466 268.348 277.162C268.348 273.526 270.148 270.7 273.748 268.684C277.348 266.668 282.496 265.66 289.192 265.66C295.312 265.66 300.136 266.758 303.664 268.954C307.228 271.114 308.974 274.516 308.902 279.16H300.64C300.64 273.94 296.824 271.33 289.192 271.33C281.164 271.33 277.15 273.418 277.15 277.594ZM350.049 272.302H325.803V283.048H348.321V287.962H325.803V297.898H350.049V304H318.405V266.2H350.049V272.302ZM377.819 265.39C384.335 265.39 389.753 267.262 394.073 271.006C398.429 274.75 400.625 279.466 400.661 285.154C400.661 290.806 398.483 295.504 394.127 299.248C389.807 302.992 384.371 304.864 377.819 304.864C371.303 304.864 365.867 302.992 361.511 299.248C357.191 295.504 355.031 290.806 355.031 285.154C355.031 279.61 357.227 274.93 361.619 271.114C366.047 267.298 371.447 265.39 377.819 265.39ZM377.819 299.14C381.995 299.14 385.469 297.898 388.241 295.414C391.049 292.93 392.453 289.582 392.453 285.37C392.453 281.014 391.157 277.612 388.565 275.164C385.973 272.716 382.499 271.456 378.143 271.384C373.895 271.312 370.367 272.554 367.559 275.11C364.787 277.666 363.401 281.086 363.401 285.37C363.401 289.654 364.769 293.02 367.505 295.468C370.241 297.916 373.679 299.14 377.819 299.14Z" fill="#202020"/>
</svg>
